<mxfile host="Electron" agent="Mozilla/5.0 (Windows NT 10.0; Win64; x64) AppleWebKit/537.36 (KHTML, like Gecko) draw.io/26.2.15 Chrome/134.0.6998.205 Electron/35.2.1 Safari/537.36" version="26.2.15">
  <diagram name="Page-1" id="EFFMf7o6BYHwNJs1m0tW">
    <mxGraphModel dx="979" dy="673" grid="1" gridSize="10" guides="1" tooltips="1" connect="1" arrows="1" fold="1" page="1" pageScale="1" pageWidth="850" pageHeight="1100" math="0" shadow="0">
      <root>
        <mxCell id="0" />
        <mxCell id="1" parent="0" />
        <mxCell id="rdj0ItbVaOH1j8f1-xAn-1" value="User" style="rounded=0;whiteSpace=wrap;html=1;" parent="1" vertex="1">
          <mxGeometry x="10" y="50" width="60" height="50" as="geometry" />
        </mxCell>
        <mxCell id="rdj0ItbVaOH1j8f1-xAn-6" value="Defense" style="rounded=0;whiteSpace=wrap;html=1;" parent="1" vertex="1">
          <mxGeometry x="900" y="50" width="60" height="50" as="geometry" />
        </mxCell>
        <mxCell id="rdj0ItbVaOH1j8f1-xAn-7" value="Game" style="rounded=0;whiteSpace=wrap;html=1;" parent="1" vertex="1">
          <mxGeometry x="280" y="50" width="60" height="50" as="geometry" />
        </mxCell>
        <mxCell id="rdj0ItbVaOH1j8f1-xAn-8" value="ColumbusShip" style="rounded=0;whiteSpace=wrap;html=1;" parent="1" vertex="1">
          <mxGeometry x="455" y="50" width="95" height="50" as="geometry" />
        </mxCell>
        <mxCell id="rdj0ItbVaOH1j8f1-xAn-9" value="App" style="rounded=0;whiteSpace=wrap;html=1;" parent="1" vertex="1">
          <mxGeometry x="130" y="50" width="60" height="50" as="geometry" />
        </mxCell>
        <mxCell id="rdj0ItbVaOH1j8f1-xAn-12" value="" style="rounded=0;whiteSpace=wrap;html=1;" parent="1" vertex="1">
          <mxGeometry x="35" y="130" width="10" height="1680" as="geometry" />
        </mxCell>
        <mxCell id="rdj0ItbVaOH1j8f1-xAn-13" value="" style="rounded=0;whiteSpace=wrap;html=1;" parent="1" vertex="1">
          <mxGeometry x="155" y="150" width="10" height="1650" as="geometry" />
        </mxCell>
        <mxCell id="rdj0ItbVaOH1j8f1-xAn-14" value="" style="endArrow=classic;html=1;rounded=0;" parent="1" edge="1">
          <mxGeometry width="50" height="50" relative="1" as="geometry">
            <mxPoint x="50" y="160" as="sourcePoint" />
            <mxPoint x="150" y="160" as="targetPoint" />
          </mxGeometry>
        </mxCell>
        <mxCell id="rdj0ItbVaOH1j8f1-xAn-15" value="/play?keyEvent" style="text;html=1;align=center;verticalAlign=middle;resizable=0;points=[];autosize=1;strokeColor=none;fillColor=none;" parent="1" vertex="1">
          <mxGeometry x="45" y="130" width="100" height="30" as="geometry" />
        </mxCell>
        <mxCell id="rdj0ItbVaOH1j8f1-xAn-16" value="" style="rounded=0;whiteSpace=wrap;html=1;" parent="1" vertex="1">
          <mxGeometry x="305" y="170" width="10" height="1520" as="geometry" />
        </mxCell>
        <mxCell id="rdj0ItbVaOH1j8f1-xAn-17" value="" style="endArrow=classic;html=1;rounded=0;" parent="1" edge="1">
          <mxGeometry width="50" height="50" relative="1" as="geometry">
            <mxPoint x="170" y="180" as="sourcePoint" />
            <mxPoint x="300" y="180" as="targetPoint" />
          </mxGeometry>
        </mxCell>
        <mxCell id="rdj0ItbVaOH1j8f1-xAn-18" value="play(ke)" style="text;html=1;align=center;verticalAlign=middle;resizable=0;points=[];autosize=1;strokeColor=none;fillColor=none;" parent="1" vertex="1">
          <mxGeometry x="220" y="150" width="70" height="30" as="geometry" />
        </mxCell>
        <mxCell id="rdj0ItbVaOH1j8f1-xAn-19" value="" style="rounded=0;whiteSpace=wrap;html=1;" parent="1" vertex="1">
          <mxGeometry x="497.5" y="190" width="10" height="570" as="geometry" />
        </mxCell>
        <mxCell id="rdj0ItbVaOH1j8f1-xAn-20" value="" style="endArrow=classic;html=1;rounded=0;" parent="1" edge="1">
          <mxGeometry width="50" height="50" relative="1" as="geometry">
            <mxPoint x="320" y="200" as="sourcePoint" />
            <mxPoint x="490" y="200" as="targetPoint" />
          </mxGeometry>
        </mxCell>
        <mxCell id="rdj0ItbVaOH1j8f1-xAn-21" value="moveInDirection()" style="text;html=1;align=center;verticalAlign=middle;resizable=0;points=[];autosize=1;strokeColor=none;fillColor=none;" parent="1" vertex="1">
          <mxGeometry x="345" y="170" width="120" height="30" as="geometry" />
        </mxCell>
        <mxCell id="rdj0ItbVaOH1j8f1-xAn-22" value="" style="endArrow=classic;html=1;rounded=0;exitX=0.091;exitY=1;exitDx=0;exitDy=0;exitPerimeter=0;" parent="1" source="rdj0ItbVaOH1j8f1-xAn-23" edge="1">
          <mxGeometry width="50" height="50" relative="1" as="geometry">
            <mxPoint x="330" y="210" as="sourcePoint" />
            <mxPoint x="510" y="250" as="targetPoint" />
            <Array as="points">
              <mxPoint x="560" y="222" />
              <mxPoint x="560" y="250" />
            </Array>
          </mxGeometry>
        </mxCell>
        <mxCell id="rdj0ItbVaOH1j8f1-xAn-23" value="updateLocation()" style="text;html=1;align=center;verticalAlign=middle;resizable=0;points=[];autosize=1;strokeColor=none;fillColor=none;" parent="1" vertex="1">
          <mxGeometry x="500" y="190" width="110" height="30" as="geometry" />
        </mxCell>
        <mxCell id="rdj0ItbVaOH1j8f1-xAn-24" value="WhirlpoolComposite" style="rounded=0;whiteSpace=wrap;html=1;" parent="1" vertex="1">
          <mxGeometry x="695" y="50" width="110" height="50" as="geometry" />
        </mxCell>
        <mxCell id="rdj0ItbVaOH1j8f1-xAn-25" value="" style="rounded=0;whiteSpace=wrap;html=1;" parent="1" vertex="1">
          <mxGeometry x="745" y="270" width="10" height="80" as="geometry" />
        </mxCell>
        <mxCell id="rdj0ItbVaOH1j8f1-xAn-26" value="" style="endArrow=classic;html=1;rounded=0;" parent="1" edge="1">
          <mxGeometry width="50" height="50" relative="1" as="geometry">
            <mxPoint x="510" y="290" as="sourcePoint" />
            <mxPoint x="740" y="290" as="targetPoint" />
          </mxGeometry>
        </mxCell>
        <mxCell id="rdj0ItbVaOH1j8f1-xAn-27" value="if ship enters W, newRandomLocation()" style="text;html=1;align=center;verticalAlign=middle;resizable=0;points=[];autosize=1;strokeColor=none;fillColor=none;" parent="1" vertex="1">
          <mxGeometry x="507.5" y="258" width="230" height="30" as="geometry" />
        </mxCell>
        <mxCell id="rdj0ItbVaOH1j8f1-xAn-28" value="" style="endArrow=classic;html=1;rounded=0;" parent="1" edge="1">
          <mxGeometry width="50" height="50" relative="1" as="geometry">
            <mxPoint x="740" y="330" as="sourcePoint" />
            <mxPoint x="510" y="330" as="targetPoint" />
          </mxGeometry>
        </mxCell>
        <mxCell id="rdj0ItbVaOH1j8f1-xAn-29" value="Point2D" style="text;html=1;align=center;verticalAlign=middle;resizable=0;points=[];autosize=1;strokeColor=none;fillColor=none;" parent="1" vertex="1">
          <mxGeometry x="565" y="308" width="70" height="30" as="geometry" />
        </mxCell>
        <mxCell id="rdj0ItbVaOH1j8f1-xAn-30" value="" style="rounded=0;whiteSpace=wrap;html=1;" parent="1" vertex="1">
          <mxGeometry x="925" y="380" width="10" height="70" as="geometry" />
        </mxCell>
        <mxCell id="rdj0ItbVaOH1j8f1-xAn-31" value="" style="endArrow=classic;html=1;rounded=0;" parent="1" edge="1">
          <mxGeometry width="50" height="50" relative="1" as="geometry">
            <mxPoint x="507.5" y="390" as="sourcePoint" />
            <mxPoint x="917.5" y="390" as="targetPoint" />
          </mxGeometry>
        </mxCell>
        <mxCell id="rdj0ItbVaOH1j8f1-xAn-32" value="if found a shield, addShield()" style="text;html=1;align=center;verticalAlign=middle;resizable=0;points=[];autosize=1;strokeColor=none;fillColor=none;" parent="1" vertex="1">
          <mxGeometry x="530" y="358" width="180" height="30" as="geometry" />
        </mxCell>
        <mxCell id="rdj0ItbVaOH1j8f1-xAn-34" value="" style="endArrow=classic;html=1;rounded=0;" parent="1" edge="1">
          <mxGeometry width="50" height="50" relative="1" as="geometry">
            <mxPoint x="940" y="400" as="sourcePoint" />
            <mxPoint x="940" y="430" as="targetPoint" />
            <Array as="points">
              <mxPoint x="1000" y="400" />
              <mxPoint x="1000" y="430" />
            </Array>
          </mxGeometry>
        </mxCell>
        <mxCell id="rdj0ItbVaOH1j8f1-xAn-35" value="addShield()" style="text;html=1;align=center;verticalAlign=middle;resizable=0;points=[];autosize=1;strokeColor=none;fillColor=none;" parent="1" vertex="1">
          <mxGeometry x="935" y="370" width="80" height="30" as="geometry" />
        </mxCell>
        <mxCell id="rdj0ItbVaOH1j8f1-xAn-36" value="" style="endArrow=classic;html=1;rounded=0;exitX=-0.009;exitY=0.94;exitDx=0;exitDy=0;exitPerimeter=0;" parent="1" source="rdj0ItbVaOH1j8f1-xAn-44" edge="1">
          <mxGeometry width="50" height="50" relative="1" as="geometry">
            <mxPoint x="1160" y="560" as="sourcePoint" />
            <mxPoint x="1150" y="600" as="targetPoint" />
            <Array as="points">
              <mxPoint x="1240" y="560" />
              <mxPoint x="1240" y="600" />
            </Array>
          </mxGeometry>
        </mxCell>
        <mxCell id="rdj0ItbVaOH1j8f1-xAn-37" value="CreatureContainer" style="rounded=0;whiteSpace=wrap;html=1;" parent="1" vertex="1">
          <mxGeometry x="1090" y="50" width="110" height="50" as="geometry" />
        </mxCell>
        <mxCell id="rdj0ItbVaOH1j8f1-xAn-38" value="" style="rounded=0;whiteSpace=wrap;html=1;" parent="1" vertex="1">
          <mxGeometry x="1140" y="510" width="10" height="210" as="geometry" />
        </mxCell>
        <mxCell id="rdj0ItbVaOH1j8f1-xAn-39" value="" style="endArrow=classic;html=1;rounded=0;" parent="1" edge="1">
          <mxGeometry width="50" height="50" relative="1" as="geometry">
            <mxPoint x="507.5" y="520" as="sourcePoint" />
            <mxPoint x="1130" y="520" as="targetPoint" />
          </mxGeometry>
        </mxCell>
        <mxCell id="rdj0ItbVaOH1j8f1-xAn-40" value="accept visitor to check collision with shark, visit()" style="text;html=1;align=center;verticalAlign=middle;resizable=0;points=[];autosize=1;strokeColor=none;fillColor=none;" parent="1" vertex="1">
          <mxGeometry x="610" y="490" width="280" height="30" as="geometry" />
        </mxCell>
        <mxCell id="rdj0ItbVaOH1j8f1-xAn-41" value="" style="endArrow=classic;html=1;rounded=0;" parent="1" edge="1">
          <mxGeometry width="50" height="50" relative="1" as="geometry">
            <mxPoint x="510" y="460" as="sourcePoint" />
            <mxPoint x="510" y="500" as="targetPoint" />
            <Array as="points">
              <mxPoint x="560" y="460" />
              <mxPoint x="560" y="500" />
            </Array>
          </mxGeometry>
        </mxCell>
        <mxCell id="rdj0ItbVaOH1j8f1-xAn-42" value="accept(Visitor, game)" style="text;html=1;align=center;verticalAlign=middle;resizable=0;points=[];autosize=1;strokeColor=none;fillColor=none;" parent="1" vertex="1">
          <mxGeometry x="552.5" y="460" width="140" height="30" as="geometry" />
        </mxCell>
        <mxCell id="rdj0ItbVaOH1j8f1-xAn-44" value="getSpecificCreature()" style="text;html=1;align=center;verticalAlign=middle;resizable=0;points=[];autosize=1;strokeColor=none;fillColor=none;" parent="1" vertex="1">
          <mxGeometry x="1150" y="530" width="140" height="30" as="geometry" />
        </mxCell>
        <mxCell id="rdj0ItbVaOH1j8f1-xAn-45" value="Shark" style="rounded=0;whiteSpace=wrap;html=1;" parent="1" vertex="1">
          <mxGeometry x="1330" y="50" width="60" height="50" as="geometry" />
        </mxCell>
        <mxCell id="rdj0ItbVaOH1j8f1-xAn-46" value="" style="rounded=0;whiteSpace=wrap;html=1;" parent="1" vertex="1">
          <mxGeometry x="1355" y="630" width="10" height="80" as="geometry" />
        </mxCell>
        <mxCell id="rdj0ItbVaOH1j8f1-xAn-47" value="" style="endArrow=classic;html=1;rounded=0;" parent="1" edge="1">
          <mxGeometry width="50" height="50" relative="1" as="geometry">
            <mxPoint x="1150" y="650" as="sourcePoint" />
            <mxPoint x="1345" y="650" as="targetPoint" />
          </mxGeometry>
        </mxCell>
        <mxCell id="rdj0ItbVaOH1j8f1-xAn-48" value="if collided, kill()" style="text;html=1;align=center;verticalAlign=middle;resizable=0;points=[];autosize=1;strokeColor=none;fillColor=none;" parent="1" vertex="1">
          <mxGeometry x="1180" y="618" width="100" height="30" as="geometry" />
        </mxCell>
        <mxCell id="rdj0ItbVaOH1j8f1-xAn-49" value="" style="endArrow=classic;html=1;rounded=0;" parent="1" edge="1">
          <mxGeometry width="50" height="50" relative="1" as="geometry">
            <mxPoint x="1350" y="690" as="sourcePoint" />
            <mxPoint x="1160" y="690" as="targetPoint" />
          </mxGeometry>
        </mxCell>
        <mxCell id="rdj0ItbVaOH1j8f1-xAn-50" value="boolean" style="text;html=1;align=center;verticalAlign=middle;resizable=0;points=[];autosize=1;strokeColor=none;fillColor=none;" parent="1" vertex="1">
          <mxGeometry x="1195" y="668" width="70" height="30" as="geometry" />
        </mxCell>
        <mxCell id="rdj0ItbVaOH1j8f1-xAn-51" value="" style="endArrow=classic;html=1;rounded=0;" parent="1" edge="1">
          <mxGeometry width="50" height="50" relative="1" as="geometry">
            <mxPoint x="1130" y="710" as="sourcePoint" />
            <mxPoint x="510" y="710" as="targetPoint" />
          </mxGeometry>
        </mxCell>
        <mxCell id="rdj0ItbVaOH1j8f1-xAn-52" value="boolean" style="text;html=1;align=center;verticalAlign=middle;resizable=0;points=[];autosize=1;strokeColor=none;fillColor=none;" parent="1" vertex="1">
          <mxGeometry x="725" y="678" width="70" height="30" as="geometry" />
        </mxCell>
        <mxCell id="rdj0ItbVaOH1j8f1-xAn-53" value="" style="endArrow=classic;html=1;rounded=0;" parent="1" edge="1">
          <mxGeometry width="50" height="50" relative="1" as="geometry">
            <mxPoint x="490" y="740" as="sourcePoint" />
            <mxPoint x="320" y="740" as="targetPoint" />
          </mxGeometry>
        </mxCell>
        <mxCell id="rdj0ItbVaOH1j8f1-xAn-54" value="If collision with Shark,&lt;div&gt;&amp;nbsp;update winner&lt;/div&gt;" style="text;html=1;align=center;verticalAlign=middle;resizable=0;points=[];autosize=1;strokeColor=none;fillColor=none;" parent="1" vertex="1">
          <mxGeometry x="335" y="698" width="140" height="40" as="geometry" />
        </mxCell>
        <mxCell id="rdj0ItbVaOH1j8f1-xAn-55" value="PirateShip" style="rounded=0;whiteSpace=wrap;html=1;" parent="1" vertex="1">
          <mxGeometry x="1480" y="50" width="110" height="50" as="geometry" />
        </mxCell>
        <mxCell id="rdj0ItbVaOH1j8f1-xAn-56" value="" style="rounded=0;whiteSpace=wrap;html=1;" parent="1" vertex="1">
          <mxGeometry x="1530" y="740" width="10" height="930" as="geometry" />
        </mxCell>
        <mxCell id="rdj0ItbVaOH1j8f1-xAn-57" value="" style="endArrow=classic;html=1;rounded=0;" parent="1" edge="1">
          <mxGeometry width="50" height="50" relative="1" as="geometry">
            <mxPoint x="510" y="750" as="sourcePoint" />
            <mxPoint x="1520" y="750" as="targetPoint" />
          </mxGeometry>
        </mxCell>
        <mxCell id="rdj0ItbVaOH1j8f1-xAn-58" value="if not collided with Shark, notifyObservers() -&amp;gt; update()" style="text;html=1;align=center;verticalAlign=middle;resizable=0;points=[];autosize=1;strokeColor=none;fillColor=none;" parent="1" vertex="1">
          <mxGeometry x="625" y="720" width="310" height="30" as="geometry" />
        </mxCell>
        <mxCell id="rdj0ItbVaOH1j8f1-xAn-59" value="" style="endArrow=classic;html=1;rounded=0;" parent="1" edge="1">
          <mxGeometry width="50" height="50" relative="1" as="geometry">
            <mxPoint x="1540" y="760" as="sourcePoint" />
            <mxPoint x="1550" y="808" as="targetPoint" />
            <Array as="points">
              <mxPoint x="1600" y="760" />
              <mxPoint x="1600" y="808" />
            </Array>
          </mxGeometry>
        </mxCell>
        <mxCell id="rdj0ItbVaOH1j8f1-xAn-60" value="movePirateShip()" style="text;html=1;align=center;verticalAlign=middle;resizable=0;points=[];autosize=1;strokeColor=none;fillColor=none;" parent="1" vertex="1">
          <mxGeometry x="1540" y="730" width="120" height="30" as="geometry" />
        </mxCell>
        <mxCell id="rdj0ItbVaOH1j8f1-xAn-61" value="" style="endArrow=classic;html=1;rounded=0;" parent="1" edge="1">
          <mxGeometry width="50" height="50" relative="1" as="geometry">
            <mxPoint x="1530" y="830" as="sourcePoint" />
            <mxPoint x="320" y="830" as="targetPoint" />
          </mxGeometry>
        </mxCell>
        <mxCell id="rdj0ItbVaOH1j8f1-xAn-62" value="check pirate collision with columbus, pirateColumbusCollisionCheck()" style="text;html=1;align=center;verticalAlign=middle;resizable=0;points=[];autosize=1;strokeColor=none;fillColor=none;" parent="1" vertex="1">
          <mxGeometry x="685" y="798" width="390" height="30" as="geometry" />
        </mxCell>
        <mxCell id="rdj0ItbVaOH1j8f1-xAn-63" value="" style="rounded=0;whiteSpace=wrap;html=1;" parent="1" vertex="1">
          <mxGeometry x="497.5" y="1000" width="10" height="70" as="geometry" />
        </mxCell>
        <mxCell id="rdj0ItbVaOH1j8f1-xAn-64" value="" style="endArrow=classic;html=1;rounded=0;entryX=-0.07;entryY=0.157;entryDx=0;entryDy=0;entryPerimeter=0;" parent="1" target="rdj0ItbVaOH1j8f1-xAn-63" edge="1">
          <mxGeometry width="50" height="50" relative="1" as="geometry">
            <mxPoint x="320" y="1010" as="sourcePoint" />
            <mxPoint x="370" y="1000" as="targetPoint" />
          </mxGeometry>
        </mxCell>
        <mxCell id="rdj0ItbVaOH1j8f1-xAn-65" value="getDefense()" style="text;html=1;align=center;verticalAlign=middle;resizable=0;points=[];autosize=1;strokeColor=none;fillColor=none;" parent="1" vertex="1">
          <mxGeometry x="335" y="838" width="90" height="30" as="geometry" />
        </mxCell>
        <mxCell id="rdj0ItbVaOH1j8f1-xAn-66" value="" style="endArrow=classic;html=1;rounded=0;" parent="1" edge="1">
          <mxGeometry width="50" height="50" relative="1" as="geometry">
            <mxPoint x="490" y="1040" as="sourcePoint" />
            <mxPoint x="320" y="1040" as="targetPoint" />
          </mxGeometry>
        </mxCell>
        <mxCell id="rdj0ItbVaOH1j8f1-xAn-67" value="Defense" style="text;html=1;align=center;verticalAlign=middle;resizable=0;points=[];autosize=1;strokeColor=none;fillColor=none;" parent="1" vertex="1">
          <mxGeometry x="335" y="1018" width="70" height="30" as="geometry" />
        </mxCell>
        <mxCell id="rdj0ItbVaOH1j8f1-xAn-68" value="" style="endArrow=classic;html=1;rounded=0;" parent="1" edge="1">
          <mxGeometry width="50" height="50" relative="1" as="geometry">
            <mxPoint x="320" y="1080" as="sourcePoint" />
            <mxPoint x="320" y="1130" as="targetPoint" />
            <Array as="points">
              <mxPoint x="400" y="1080" />
              <mxPoint x="400" y="1130" />
            </Array>
          </mxGeometry>
        </mxCell>
        <mxCell id="rdj0ItbVaOH1j8f1-xAn-69" value="update winner if pirate collides&amp;nbsp;&lt;div&gt;with CC(no shield)&lt;/div&gt;" style="text;html=1;align=center;verticalAlign=middle;resizable=0;points=[];autosize=1;strokeColor=none;fillColor=none;" parent="1" vertex="1">
          <mxGeometry x="390" y="1100" width="190" height="40" as="geometry" />
        </mxCell>
        <mxCell id="rdj0ItbVaOH1j8f1-xAn-70" value="" style="endArrow=classic;html=1;rounded=0;" parent="1" edge="1">
          <mxGeometry width="50" height="50" relative="1" as="geometry">
            <mxPoint x="320" y="1170" as="sourcePoint" />
            <mxPoint x="320" y="1220" as="targetPoint" />
            <Array as="points">
              <mxPoint x="400" y="1170" />
              <mxPoint x="400" y="1220" />
            </Array>
          </mxGeometry>
        </mxCell>
        <mxCell id="rdj0ItbVaOH1j8f1-xAn-71" value="killPirateShip() if pirate&amp;nbsp;&lt;div&gt;collides with CC with shield&lt;/div&gt;" style="text;html=1;align=center;verticalAlign=middle;resizable=0;points=[];autosize=1;strokeColor=none;fillColor=none;" parent="1" vertex="1">
          <mxGeometry x="390" y="1180" width="170" height="40" as="geometry" />
        </mxCell>
        <mxCell id="rdj0ItbVaOH1j8f1-xAn-72" value="" style="endArrow=classic;html=1;rounded=0;" parent="1" edge="1">
          <mxGeometry width="50" height="50" relative="1" as="geometry">
            <mxPoint x="320" y="1270" as="sourcePoint" />
            <mxPoint x="1520" y="1270" as="targetPoint" />
          </mxGeometry>
        </mxCell>
        <mxCell id="rdj0ItbVaOH1j8f1-xAn-73" value="return pirate Location if no collision between CC &amp;amp; Pirate" style="text;html=1;align=center;verticalAlign=middle;resizable=0;points=[];autosize=1;strokeColor=none;fillColor=none;" parent="1" vertex="1">
          <mxGeometry x="600" y="1240" width="320" height="30" as="geometry" />
        </mxCell>
        <mxCell id="rdj0ItbVaOH1j8f1-xAn-74" value="" style="rounded=0;whiteSpace=wrap;html=1;" parent="1" vertex="1">
          <mxGeometry x="745" y="1300" width="10" height="60" as="geometry" />
        </mxCell>
        <mxCell id="rdj0ItbVaOH1j8f1-xAn-75" value="" style="endArrow=classic;html=1;rounded=0;" parent="1" edge="1">
          <mxGeometry width="50" height="50" relative="1" as="geometry">
            <mxPoint x="1530" y="1310" as="sourcePoint" />
            <mxPoint x="760" y="1310" as="targetPoint" />
          </mxGeometry>
        </mxCell>
        <mxCell id="rdj0ItbVaOH1j8f1-xAn-76" value="check if pirate falls into W, newRandomLocation()" style="text;html=1;align=center;verticalAlign=middle;resizable=0;points=[];autosize=1;strokeColor=none;fillColor=none;" parent="1" vertex="1">
          <mxGeometry x="815" y="1278" width="290" height="30" as="geometry" />
        </mxCell>
        <mxCell id="rdj0ItbVaOH1j8f1-xAn-79" value="" style="endArrow=classic;html=1;rounded=0;" parent="1" edge="1">
          <mxGeometry width="50" height="50" relative="1" as="geometry">
            <mxPoint x="755" y="1340" as="sourcePoint" />
            <mxPoint x="1520" y="1340" as="targetPoint" />
          </mxGeometry>
        </mxCell>
        <mxCell id="rdj0ItbVaOH1j8f1-xAn-80" value="Point2D" style="text;html=1;align=center;verticalAlign=middle;resizable=0;points=[];autosize=1;strokeColor=none;fillColor=none;" parent="1" vertex="1">
          <mxGeometry x="1135" y="1318" width="70" height="30" as="geometry" />
        </mxCell>
        <mxCell id="rdj0ItbVaOH1j8f1-xAn-81" value="" style="rounded=0;whiteSpace=wrap;html=1;" parent="1" vertex="1">
          <mxGeometry x="1140" y="1440" width="10" height="170" as="geometry" />
        </mxCell>
        <mxCell id="rdj0ItbVaOH1j8f1-xAn-84" value="accept(Visitor, game)" style="text;html=1;align=center;verticalAlign=middle;resizable=0;points=[];autosize=1;strokeColor=none;fillColor=none;" parent="1" vertex="1">
          <mxGeometry x="1540" y="1348" width="140" height="30" as="geometry" />
        </mxCell>
        <mxCell id="rdj0ItbVaOH1j8f1-xAn-85" value="" style="endArrow=classic;html=1;rounded=0;exitX=0.023;exitY=1.087;exitDx=0;exitDy=0;exitPerimeter=0;" parent="1" source="rdj0ItbVaOH1j8f1-xAn-84" edge="1">
          <mxGeometry width="50" height="50" relative="1" as="geometry">
            <mxPoint x="1540" y="1420" as="sourcePoint" />
            <mxPoint x="1542" y="1420" as="targetPoint" />
            <Array as="points">
              <mxPoint x="1580" y="1380" />
              <mxPoint x="1580" y="1420" />
            </Array>
          </mxGeometry>
        </mxCell>
        <mxCell id="rdj0ItbVaOH1j8f1-xAn-86" value="" style="endArrow=classic;html=1;rounded=0;" parent="1" edge="1">
          <mxGeometry width="50" height="50" relative="1" as="geometry">
            <mxPoint x="1520" y="1440" as="sourcePoint" />
            <mxPoint x="1160" y="1440" as="targetPoint" />
          </mxGeometry>
        </mxCell>
        <mxCell id="rdj0ItbVaOH1j8f1-xAn-87" value="accept visitor to check collision with shark, visit()" style="text;html=1;align=center;verticalAlign=middle;resizable=0;points=[];autosize=1;strokeColor=none;fillColor=none;" parent="1" vertex="1">
          <mxGeometry x="1190" y="1410" width="280" height="30" as="geometry" />
        </mxCell>
        <mxCell id="rdj0ItbVaOH1j8f1-xAn-88" value="" style="endArrow=classic;html=1;rounded=0;exitX=0.003;exitY=0.86;exitDx=0;exitDy=0;exitPerimeter=0;entryX=1.28;entryY=0.369;entryDx=0;entryDy=0;entryPerimeter=0;" parent="1" source="rdj0ItbVaOH1j8f1-xAn-89" target="rdj0ItbVaOH1j8f1-xAn-81" edge="1">
          <mxGeometry width="50" height="50" relative="1" as="geometry">
            <mxPoint x="1160" y="1500" as="sourcePoint" />
            <mxPoint x="1360" y="1470" as="targetPoint" />
            <Array as="points">
              <mxPoint x="1230" y="1475" />
              <mxPoint x="1230" y="1503" />
            </Array>
          </mxGeometry>
        </mxCell>
        <mxCell id="rdj0ItbVaOH1j8f1-xAn-89" value="getSpecificCreature()" style="text;html=1;align=center;verticalAlign=middle;resizable=0;points=[];autosize=1;strokeColor=none;fillColor=none;" parent="1" vertex="1">
          <mxGeometry x="1150" y="1450" width="140" height="30" as="geometry" />
        </mxCell>
        <mxCell id="rdj0ItbVaOH1j8f1-xAn-90" value="" style="rounded=0;whiteSpace=wrap;html=1;" parent="1" vertex="1">
          <mxGeometry x="1355" y="1530" width="10" height="50" as="geometry" />
        </mxCell>
        <mxCell id="rdj0ItbVaOH1j8f1-xAn-91" value="" style="endArrow=classic;html=1;rounded=0;exitX=1.12;exitY=0.615;exitDx=0;exitDy=0;exitPerimeter=0;" parent="1" source="rdj0ItbVaOH1j8f1-xAn-81" edge="1">
          <mxGeometry width="50" height="50" relative="1" as="geometry">
            <mxPoint x="1170" y="1580" as="sourcePoint" />
            <mxPoint x="1350" y="1545" as="targetPoint" />
          </mxGeometry>
        </mxCell>
        <mxCell id="rdj0ItbVaOH1j8f1-xAn-92" value="if collided, kill()" style="text;html=1;align=center;verticalAlign=middle;resizable=0;points=[];autosize=1;strokeColor=none;fillColor=none;" parent="1" vertex="1">
          <mxGeometry x="1180" y="1518" width="100" height="30" as="geometry" />
        </mxCell>
        <mxCell id="rdj0ItbVaOH1j8f1-xAn-93" value="" style="endArrow=classic;html=1;rounded=0;" parent="1" edge="1">
          <mxGeometry width="50" height="50" relative="1" as="geometry">
            <mxPoint x="1350" y="1570" as="sourcePoint" />
            <mxPoint x="1160" y="1570" as="targetPoint" />
          </mxGeometry>
        </mxCell>
        <mxCell id="rdj0ItbVaOH1j8f1-xAn-94" value="boolean" style="text;html=1;align=center;verticalAlign=middle;resizable=0;points=[];autosize=1;strokeColor=none;fillColor=none;" parent="1" vertex="1">
          <mxGeometry x="1195" y="1548" width="70" height="30" as="geometry" />
        </mxCell>
        <mxCell id="rdj0ItbVaOH1j8f1-xAn-96" value="" style="endArrow=classic;html=1;rounded=0;exitX=-0.178;exitY=0.985;exitDx=0;exitDy=0;exitPerimeter=0;" parent="1" edge="1">
          <mxGeometry width="50" height="50" relative="1" as="geometry">
            <mxPoint x="1528.2199999999998" y="1648.2999999999997" as="sourcePoint" />
            <mxPoint x="320" y="1650" as="targetPoint" />
          </mxGeometry>
        </mxCell>
        <mxCell id="rdj0ItbVaOH1j8f1-xAn-97" value="" style="endArrow=classic;html=1;rounded=0;" parent="1" edge="1">
          <mxGeometry width="50" height="50" relative="1" as="geometry">
            <mxPoint x="300" y="1680" as="sourcePoint" />
            <mxPoint x="170" y="1680" as="targetPoint" />
          </mxGeometry>
        </mxCell>
        <mxCell id="rdj0ItbVaOH1j8f1-xAn-98" value="game" style="text;html=1;align=center;verticalAlign=middle;resizable=0;points=[];autosize=1;strokeColor=none;fillColor=none;" parent="1" vertex="1">
          <mxGeometry x="195" y="1648" width="50" height="30" as="geometry" />
        </mxCell>
        <mxCell id="rdj0ItbVaOH1j8f1-xAn-99" value="GameState" style="rounded=0;whiteSpace=wrap;html=1;" parent="1" vertex="1">
          <mxGeometry x="1710" y="50" width="80" height="50" as="geometry" />
        </mxCell>
        <mxCell id="rdj0ItbVaOH1j8f1-xAn-100" value="" style="endArrow=classic;html=1;rounded=0;" parent="1" edge="1">
          <mxGeometry width="50" height="50" relative="1" as="geometry">
            <mxPoint x="170" y="1720" as="sourcePoint" />
            <mxPoint x="1740" y="1720" as="targetPoint" />
          </mxGeometry>
        </mxCell>
        <mxCell id="rdj0ItbVaOH1j8f1-xAn-101" value="" style="rounded=0;whiteSpace=wrap;html=1;" parent="1" vertex="1">
          <mxGeometry x="1745" y="1710" width="10" height="80" as="geometry" />
        </mxCell>
        <mxCell id="rdj0ItbVaOH1j8f1-xAn-102" value="forGame(game)" style="text;html=1;align=center;verticalAlign=middle;resizable=0;points=[];autosize=1;strokeColor=none;fillColor=none;" parent="1" vertex="1">
          <mxGeometry x="1455" y="1688" width="110" height="30" as="geometry" />
        </mxCell>
        <mxCell id="rdj0ItbVaOH1j8f1-xAn-103" value="" style="endArrow=classic;html=1;rounded=0;" parent="1" edge="1">
          <mxGeometry width="50" height="50" relative="1" as="geometry">
            <mxPoint x="1740" y="1750" as="sourcePoint" />
            <mxPoint x="170" y="1750" as="targetPoint" />
          </mxGeometry>
        </mxCell>
        <mxCell id="rdj0ItbVaOH1j8f1-xAn-104" value="gameState" style="text;html=1;align=center;verticalAlign=middle;resizable=0;points=[];autosize=1;strokeColor=none;fillColor=none;" parent="1" vertex="1">
          <mxGeometry x="1560" y="1728" width="80" height="30" as="geometry" />
        </mxCell>
        <mxCell id="rdj0ItbVaOH1j8f1-xAn-105" value="" style="endArrow=classic;html=1;rounded=0;" parent="1" edge="1">
          <mxGeometry width="50" height="50" relative="1" as="geometry">
            <mxPoint x="150" y="1780" as="sourcePoint" />
            <mxPoint x="50" y="1780" as="targetPoint" />
          </mxGeometry>
        </mxCell>
        <mxCell id="rdj0ItbVaOH1j8f1-xAn-106" value="JSON" style="text;html=1;align=center;verticalAlign=middle;resizable=0;points=[];autosize=1;strokeColor=none;fillColor=none;" parent="1" vertex="1">
          <mxGeometry x="60" y="1748" width="60" height="30" as="geometry" />
        </mxCell>
        <mxCell id="rdj0ItbVaOH1j8f1-xAn-107" value="" style="endArrow=none;dashed=1;html=1;dashPattern=1 3;strokeWidth=2;rounded=0;entryX=0.5;entryY=1;entryDx=0;entryDy=0;" parent="1" target="rdj0ItbVaOH1j8f1-xAn-1" edge="1">
          <mxGeometry width="50" height="50" relative="1" as="geometry">
            <mxPoint x="40" y="1830" as="sourcePoint" />
            <mxPoint x="39.44" y="1070" as="targetPoint" />
          </mxGeometry>
        </mxCell>
        <mxCell id="rdj0ItbVaOH1j8f1-xAn-108" value="" style="endArrow=none;dashed=1;html=1;dashPattern=1 3;strokeWidth=2;rounded=0;entryX=0.5;entryY=1;entryDx=0;entryDy=0;" parent="1" edge="1">
          <mxGeometry width="50" height="50" relative="1" as="geometry">
            <mxPoint x="160" y="1840" as="sourcePoint" />
            <mxPoint x="159.44" y="100" as="targetPoint" />
          </mxGeometry>
        </mxCell>
        <mxCell id="rdj0ItbVaOH1j8f1-xAn-109" value="" style="endArrow=none;dashed=1;html=1;dashPattern=1 3;strokeWidth=2;rounded=0;entryX=0.5;entryY=1;entryDx=0;entryDy=0;" parent="1" edge="1">
          <mxGeometry width="50" height="50" relative="1" as="geometry">
            <mxPoint x="310" y="1830" as="sourcePoint" />
            <mxPoint x="309.44" y="100" as="targetPoint" />
          </mxGeometry>
        </mxCell>
        <mxCell id="rdj0ItbVaOH1j8f1-xAn-110" value="" style="endArrow=none;dashed=1;html=1;dashPattern=1 3;strokeWidth=2;rounded=0;entryX=0.5;entryY=1;entryDx=0;entryDy=0;" parent="1" edge="1">
          <mxGeometry width="50" height="50" relative="1" as="geometry">
            <mxPoint x="500" y="1840" as="sourcePoint" />
            <mxPoint x="501.94" y="100" as="targetPoint" />
          </mxGeometry>
        </mxCell>
        <mxCell id="rdj0ItbVaOH1j8f1-xAn-111" value="" style="endArrow=none;dashed=1;html=1;dashPattern=1 3;strokeWidth=2;rounded=0;entryX=0.5;entryY=1;entryDx=0;entryDy=0;" parent="1" edge="1">
          <mxGeometry width="50" height="50" relative="1" as="geometry">
            <mxPoint x="750" y="1830" as="sourcePoint" />
            <mxPoint x="749.44" y="100" as="targetPoint" />
          </mxGeometry>
        </mxCell>
        <mxCell id="rdj0ItbVaOH1j8f1-xAn-112" value="" style="endArrow=none;dashed=1;html=1;dashPattern=1 3;strokeWidth=2;rounded=0;entryX=0.5;entryY=1;entryDx=0;entryDy=0;" parent="1" edge="1">
          <mxGeometry width="50" height="50" relative="1" as="geometry">
            <mxPoint x="930" y="1830" as="sourcePoint" />
            <mxPoint x="929.44" y="100" as="targetPoint" />
          </mxGeometry>
        </mxCell>
        <mxCell id="rdj0ItbVaOH1j8f1-xAn-113" value="" style="endArrow=none;dashed=1;html=1;dashPattern=1 3;strokeWidth=2;rounded=0;entryX=0.5;entryY=1;entryDx=0;entryDy=0;" parent="1" edge="1">
          <mxGeometry width="50" height="50" relative="1" as="geometry">
            <mxPoint x="1144" y="1830" as="sourcePoint" />
            <mxPoint x="1144.44" y="100" as="targetPoint" />
          </mxGeometry>
        </mxCell>
        <mxCell id="rdj0ItbVaOH1j8f1-xAn-114" value="" style="endArrow=none;dashed=1;html=1;dashPattern=1 3;strokeWidth=2;rounded=0;entryX=0.5;entryY=1;entryDx=0;entryDy=0;" parent="1" edge="1">
          <mxGeometry width="50" height="50" relative="1" as="geometry">
            <mxPoint x="1360" y="1830" as="sourcePoint" />
            <mxPoint x="1359.44" y="100" as="targetPoint" />
          </mxGeometry>
        </mxCell>
        <mxCell id="rdj0ItbVaOH1j8f1-xAn-115" value="" style="endArrow=none;dashed=1;html=1;dashPattern=1 3;strokeWidth=2;rounded=0;entryX=0.5;entryY=1;entryDx=0;entryDy=0;" parent="1" edge="1">
          <mxGeometry width="50" height="50" relative="1" as="geometry">
            <mxPoint x="1530" y="1830" as="sourcePoint" />
            <mxPoint x="1534.44" y="100" as="targetPoint" />
          </mxGeometry>
        </mxCell>
        <mxCell id="rdj0ItbVaOH1j8f1-xAn-116" value="" style="endArrow=none;dashed=1;html=1;dashPattern=1 3;strokeWidth=2;rounded=0;entryX=0.5;entryY=1;entryDx=0;entryDy=0;" parent="1" edge="1">
          <mxGeometry width="50" height="50" relative="1" as="geometry">
            <mxPoint x="1749" y="1820" as="sourcePoint" />
            <mxPoint x="1749.44" y="95" as="targetPoint" />
          </mxGeometry>
        </mxCell>
        <mxCell id="7abXneaCiO5RFltlZQpX-3" value="" style="endArrow=classic;html=1;rounded=0;" parent="1" edge="1">
          <mxGeometry width="50" height="50" relative="1" as="geometry">
            <mxPoint x="300" y="1150" as="sourcePoint" />
            <mxPoint x="169" y="1150" as="targetPoint" />
          </mxGeometry>
        </mxCell>
        <mxCell id="7abXneaCiO5RFltlZQpX-4" value="game" style="text;html=1;align=center;verticalAlign=middle;resizable=0;points=[];autosize=1;strokeColor=none;fillColor=none;" parent="1" vertex="1">
          <mxGeometry x="205" y="1118" width="50" height="30" as="geometry" />
        </mxCell>
        <mxCell id="v-ayVHyftYqY-JHzFxPD-1" value="User" style="rounded=0;whiteSpace=wrap;html=1;" vertex="1" parent="1">
          <mxGeometry x="10" y="890" width="60" height="50" as="geometry" />
        </mxCell>
        <mxCell id="v-ayVHyftYqY-JHzFxPD-2" value="Defense" style="rounded=0;whiteSpace=wrap;html=1;" vertex="1" parent="1">
          <mxGeometry x="900" y="890" width="60" height="50" as="geometry" />
        </mxCell>
        <mxCell id="v-ayVHyftYqY-JHzFxPD-3" value="Game" style="rounded=0;whiteSpace=wrap;html=1;" vertex="1" parent="1">
          <mxGeometry x="280" y="890" width="60" height="50" as="geometry" />
        </mxCell>
        <mxCell id="v-ayVHyftYqY-JHzFxPD-4" value="ColumbusShip" style="rounded=0;whiteSpace=wrap;html=1;" vertex="1" parent="1">
          <mxGeometry x="455" y="890" width="95" height="50" as="geometry" />
        </mxCell>
        <mxCell id="v-ayVHyftYqY-JHzFxPD-5" value="App" style="rounded=0;whiteSpace=wrap;html=1;" vertex="1" parent="1">
          <mxGeometry x="130" y="890" width="60" height="50" as="geometry" />
        </mxCell>
        <mxCell id="v-ayVHyftYqY-JHzFxPD-6" value="WhirlpoolComposite" style="rounded=0;whiteSpace=wrap;html=1;" vertex="1" parent="1">
          <mxGeometry x="695" y="890" width="110" height="50" as="geometry" />
        </mxCell>
        <mxCell id="v-ayVHyftYqY-JHzFxPD-7" value="CreatureContainer" style="rounded=0;whiteSpace=wrap;html=1;" vertex="1" parent="1">
          <mxGeometry x="1090" y="890" width="110" height="50" as="geometry" />
        </mxCell>
        <mxCell id="v-ayVHyftYqY-JHzFxPD-8" value="Shark" style="rounded=0;whiteSpace=wrap;html=1;" vertex="1" parent="1">
          <mxGeometry x="1330" y="890" width="60" height="50" as="geometry" />
        </mxCell>
        <mxCell id="v-ayVHyftYqY-JHzFxPD-9" value="PirateShip" style="rounded=0;whiteSpace=wrap;html=1;" vertex="1" parent="1">
          <mxGeometry x="1480" y="890" width="110" height="50" as="geometry" />
        </mxCell>
        <mxCell id="v-ayVHyftYqY-JHzFxPD-10" value="GameState" style="rounded=0;whiteSpace=wrap;html=1;" vertex="1" parent="1">
          <mxGeometry x="1710" y="890" width="80" height="50" as="geometry" />
        </mxCell>
      </root>
    </mxGraphModel>
  </diagram>
</mxfile>
